<?xml version="1.0" encoding="UTF-8" standalone="no"?>
<!DOCTYPE svg PUBLIC "-//W3C//DTD SVG 1.1//EN" "http://www.w3.org/Graphics/SVG/1.1/DTD/svg11.dtd">
<svg width="100%" height="100%" viewBox="0 0 560 160" version="1.1" xmlns="http://www.w3.org/2000/svg" xmlns:xlink="http://www.w3.org/1999/xlink" xml:space="preserve" xmlns:serif="http://www.serif.com/" style="fill-rule:evenodd;clip-rule:evenodd;stroke-linejoin:round;stroke-miterlimit:1.41421;">
    <g id="Logo_Groß_Gruppe">
        <rect id="Hintergrund" x="0" y="0" width="560" height="160" style="fill:rgb(242,242,242);fill-opacity:0;"/>
        <path id="RahmenAussen" d="M530,5c13.798,0 25,11.202 25,25l0,100c0,13.798 -11.202,25 -25,25l-500,0c-13.798,0 -25,-11.202 -25,-25l0,-100c0,-13.798 11.202,-25 25,-25l500,0Zm-2,7l-496,0c-11.039,0 -20,8.962 -20,20l0,96c0,11.038 8.962,20 20,20l496,0c11.038,0 20,-8.962 20,-20l0,-96c0,-11.038 -8.961,-20 -20,-20Z" style="fill:rgb(54,64,73);"/>
        <path id="LogoRahmen" d="M120,140l-80,0c-11.038,0 -20,-8.962 -20,-20l0,-80c0,-11.038 8.961,-20 20,-20l80,0c11.039,0 20,8.962 20,20l0,80c0,11.038 -8.961,20 -20,20Zm0.614,-88.94c-0.073,-0.102 -0.105,-0.227 -0.089,-0.351c0.249,-2.029 2.379,-19.382 2.758,-22.468c0.033,-0.264 -0.146,-0.507 -0.408,-0.554c-2.557,-0.451 -5.189,-0.687 -7.875,-0.687c-7.473,0 -14.523,1.826 -20.728,5.055c-0.114,0.059 -0.247,0.072 -0.371,0.036c-4.413,-1.28 -9.077,-1.966 -13.901,-1.966c-27.527,0 -49.875,22.348 -49.875,49.875c0,27.527 22.348,49.875 49.875,49.875c27.527,0 49.875,-22.348 49.875,-49.875c0,-10.786 -3.431,-20.777 -9.261,-28.94Z" style="fill:rgb(54,64,73);"/>
        <path id="VertikalBalken" d="M164,21c0,-0.552 -0.448,-1 -1,-1l-6,0c-0.552,0 -1,0.448 -1,1l0,118c0,0.552 0.448,1 1,1l6,0c0.552,0 1,-0.448 1,-1l0,-118Z" style="fill:rgb(54,64,73);"/>
        <path id="LogoInnen" d="M119.366,60.147c0.026,-0.219 0.192,-0.395 0.409,-0.433c0.217,-0.039 0.433,0.069 0.533,0.266c3.002,6.031 4.692,12.83 4.692,20.02c0,24.836 -20.164,45 -45,45c-24.836,0 -45,-20.164 -45,-45c0,-24.836 20.164,-45 45,-45c2.445,0 4.845,0.195 7.185,0.572c0.196,0.033 0.354,0.179 0.402,0.372c0.048,0.193 -0.023,0.396 -0.181,0.517c-10.589,8.236 -17.406,21.098 -17.406,35.539c0,4.701 0.722,9.235 2.062,13.496c0.08,0.235 0.32,0.375 0.563,0.329c0.244,-0.046 0.416,-0.264 0.405,-0.511c-0.019,-0.436 -0.03,-0.873 -0.03,-1.314c0,-14.35 11.65,-26 26,-26c7.397,0 14.077,3.096 18.813,8.061c0.132,0.142 0.334,0.194 0.518,0.135c0.184,-0.06 0.317,-0.221 0.341,-0.414c0.177,-1.432 0.49,-3.978 0.694,-5.635Zm-20.366,5.853c11.038,0 20,8.962 20,20c0,11.038 -8.962,20 -20,20c-11.038,0 -20,-8.962 -20,-20c0,-11.038 8.962,-20 20,-20Z" style="fill:rgb(212,192,17);"/>
        <circle id="PunktRot" cx="99.02" cy="86" r="16.842" style="fill:rgb(173,31,31);"/>
        <path id="TriangelGrau" d="M115.795,56.018c-0.022,0.17 -0.129,0.318 -0.285,0.391c-0.156,0.073 -0.339,0.06 -0.483,-0.034c-4.343,-2.77 -9.499,-4.375 -15.027,-4.375c-14.102,0 -25.783,10.448 -27.718,24.018c-0.007,0.075 -0.071,0.132 -0.146,0.129c-0.075,-0.003 -0.135,-0.065 -0.135,-0.141c-0.001,-0.002 -0.001,-0.004 -0.001,-0.006c0,-24.836 20.164,-45 45,-45c0.439,0 0.877,0.006 1.314,0.019c0.14,0.004 0.273,0.067 0.364,0.174c0.092,0.107 0.134,0.247 0.117,0.387c-0.403,3.282 -2.518,20.508 -3,24.438Z" style="fill:rgb(64,77,114);"/>
        <path id="Schrift_Automation" d="M223.9,99.574l4.786,0l-4.59,21.997c-0.375,1.823 -0.562,3.174 -0.562,4.053c0,1.921 0.757,3.467 2.271,4.639c1.513,1.172 3.418,1.758 5.713,1.758c1.823,0 3.519,-0.42 5.09,-1.258c1.571,-0.838 2.812,-2.071 3.723,-3.699c0.912,-1.627 1.734,-4.223 2.466,-7.788l4.126,-19.702l4.785,0l-4.37,20.996c-0.749,3.581 -1.733,6.417 -2.954,8.509c-1.221,2.091 -2.914,3.768 -5.078,5.029c-2.165,1.261 -4.68,1.892 -7.544,1.892c-2.702,0 -5.042,-0.448 -7.019,-1.343c-1.978,-0.895 -3.459,-2.132 -4.444,-3.711c-0.984,-1.578 -1.477,-3.369 -1.477,-5.371c0,-1.253 0.334,-3.41 1.001,-6.47l4.077,-19.531Zm215.015,20.801c0,-6.38 1.843,-11.544 5.53,-15.491c3.686,-3.947 8.158,-5.92 13.415,-5.92c4.46,0 8.094,1.453 10.901,4.358c2.808,2.905 4.212,6.799 4.212,11.682c0,3.483 -0.708,6.714 -2.124,9.692c-1.058,2.23 -2.393,4.155 -4.004,5.774c-1.612,1.62 -3.337,2.869 -5.176,3.748c-2.441,1.172 -5.029,1.758 -7.764,1.758c-2.864,0 -5.472,-0.684 -7.824,-2.051c-2.352,-1.367 -4.134,-3.276 -5.347,-5.725c-1.213,-2.45 -1.819,-5.058 -1.819,-7.825Zm-154.614,0c0,-6.38 1.843,-11.544 5.53,-15.491c3.686,-3.947 8.158,-5.92 13.415,-5.92c4.46,0 8.093,1.453 10.901,4.358c2.808,2.905 4.211,6.799 4.211,11.682c0,3.483 -0.708,6.714 -2.124,9.692c-1.057,2.23 -2.392,4.155 -4.003,5.774c-1.612,1.62 -3.337,2.869 -5.176,3.748c-2.442,1.172 -5.03,1.758 -7.764,1.758c-2.864,0 -5.473,-0.684 -7.825,-2.051c-2.351,-1.367 -4.134,-3.276 -5.346,-5.725c-1.213,-2.45 -1.819,-5.058 -1.819,-7.825Zm-72.827,14.99l-4.639,0l-1.733,-10.302l-14.478,0l-5.737,10.302l-5.249,0l20.288,-35.791l5.64,0l5.908,35.791Zm216.626,0l-4.785,0l7.495,-35.791l4.76,0l-7.47,35.791Zm-161.866,0l-4.785,0l6.617,-31.714l-11.744,0l0.855,-4.077l28.174,0l-0.855,4.077l-11.645,0l-6.617,31.714Zm124.878,0l-4.638,0l-1.734,-10.302l-14.477,0l-5.738,10.302l-5.249,0l20.289,-35.791l5.639,0l5.908,35.791Zm89.234,0l-4.663,0l7.495,-35.791l4.639,0l6.03,13.428c1.839,4.102 3.296,7.552 4.37,10.352c0.618,1.627 1.335,3.824 2.148,6.591c0.44,-3.011 0.993,-6.119 1.66,-9.326l4.395,-21.045l4.663,0l-7.471,35.791l-4.736,0l-8.887,-20.678c-1.578,-3.646 -2.807,-6.861 -3.686,-9.644c-0.244,2.327 -0.716,5.184 -1.416,8.569l-4.541,21.753Zm-56.03,-31.714l-11.646,0l-6.616,31.714l-4.785,0l6.616,-31.714l-11.743,0l0.854,-4.077l28.174,0l-0.854,4.077Zm-98.829,31.714l-4.663,0l7.471,-35.791l5.884,0l3.613,23.194c0.472,3.043 0.781,5.965 0.928,8.764c0.993,-2.409 2.653,-5.672 4.98,-9.79l12.549,-22.168l5.982,0l-7.471,35.791l-4.712,0l3.735,-17.407c0.863,-4.02 2.1,-8.529 3.711,-13.525c-1.025,2.327 -2.295,4.834 -3.808,7.519l-13.33,23.413l-4.615,0l-3.589,-22.949c-0.325,-2.1 -0.561,-4.549 -0.708,-7.349c-0.406,3.142 -0.805,5.632 -1.196,7.471l-4.761,22.827Zm118.14,-14.746c0,2.1 0.435,4.028 1.306,5.786c0.871,1.758 2.169,3.133 3.894,4.126c1.726,0.993 3.54,1.49 5.445,1.49c1.839,0 3.588,-0.436 5.249,-1.307c1.66,-0.87 3.145,-2.083 4.455,-3.637c1.31,-1.555 2.344,-3.467 3.101,-5.738c0.757,-2.27 1.135,-4.504 1.135,-6.701c0,-3.565 -0.997,-6.405 -2.991,-8.521c-1.994,-2.116 -4.455,-3.174 -7.385,-3.174c-3.743,0 -7.047,1.599 -9.912,4.798c-2.865,3.198 -4.297,7.491 -4.297,12.878Zm-154.614,0c0,2.1 0.435,4.028 1.306,5.786c0.871,1.758 2.169,3.133 3.894,4.126c1.725,0.993 3.54,1.49 5.444,1.49c1.84,0 3.589,-0.436 5.249,-1.307c1.661,-0.87 3.146,-2.083 4.456,-3.637c1.31,-1.555 2.344,-3.467 3.101,-5.738c0.756,-2.27 1.135,-4.504 1.135,-6.701c0,-3.565 -0.997,-6.405 -2.991,-8.521c-1.994,-2.116 -4.456,-3.174 -7.385,-3.174c-3.744,0 -7.048,1.599 -9.912,4.798c-2.865,3.198 -4.297,7.491 -4.297,12.878Zm-96.338,0.757l11.841,0l-1.392,-8.984c-0.537,-3.565 -0.871,-6.535 -1.001,-8.912c-0.814,2.051 -2.002,4.485 -3.564,7.3l-5.884,10.596Zm179.639,0l11.84,0l-1.391,-8.984c-0.537,-3.565 -0.871,-6.535 -1.001,-8.912c-0.814,2.051 -2.002,4.485 -3.565,7.3l-5.883,10.596Z" style="fill:rgb(54,64,73);fill-rule:nonzero;"/>
        <path id="Schrift_Stecher" d="M360.275,58.796l10.985,1.662c-2.144,5.95 -5.36,10.497 -9.648,13.64c-4.288,3.144 -9.31,4.715 -15.067,4.715c-6.48,0 -11.545,-1.951 -15.194,-5.853c-3.65,-3.902 -5.474,-9.563 -5.474,-16.982c0,-6.023 1.222,-11.533 3.667,-16.531c2.445,-4.999 5.836,-8.823 10.172,-11.472c4.336,-2.65 9.057,-3.975 14.164,-3.975c5.733,0 10.37,1.536 13.911,4.607c3.541,3.071 5.625,7.257 6.251,12.556l-10.443,1.012c-0.578,-3.084 -1.692,-5.318 -3.342,-6.703c-1.65,-1.385 -3.848,-2.077 -6.594,-2.077c-3.011,0 -5.824,0.915 -8.437,2.746c-2.614,1.83 -4.703,4.691 -6.269,8.581c-1.566,3.89 -2.349,7.775 -2.349,11.653c0,4.24 1.018,7.516 3.053,9.828c2.036,2.313 4.571,3.469 7.606,3.469c2.819,0 5.402,-0.915 7.751,-2.746c2.349,-1.831 4.101,-4.541 5.257,-8.13Zm-180.628,1.915l10.37,-0.542c0.145,3.3 0.711,5.528 1.699,6.685c1.589,1.878 4.528,2.818 8.816,2.818c3.565,0 6.143,-0.638 7.732,-1.915c1.59,-1.277 2.385,-2.819 2.385,-4.625c0,-1.566 -0.65,-2.891 -1.951,-3.975c-0.915,-0.795 -3.427,-2.083 -7.534,-3.866c-4.107,-1.783 -7.106,-3.27 -8.997,-4.462c-1.891,-1.193 -3.378,-2.74 -4.462,-4.643c-1.084,-1.903 -1.626,-4.132 -1.626,-6.685c0,-4.456 1.614,-8.154 4.842,-11.093c3.228,-2.939 7.901,-4.408 14.019,-4.408c6.215,0 11.027,1.457 14.435,4.372c3.409,2.915 5.282,6.793 5.619,11.635l-10.442,0.47c-0.265,-2.53 -1.181,-4.469 -2.747,-5.818c-1.565,-1.349 -3.878,-2.023 -6.937,-2.023c-3.011,0 -5.161,0.53 -6.45,1.59c-1.288,1.059 -1.933,2.396 -1.933,4.01c0,1.518 0.59,2.771 1.771,3.758c1.18,1.012 3.794,2.397 7.84,4.155c6.095,2.626 9.973,4.758 11.635,6.396c2.481,2.409 3.722,5.504 3.722,9.286c0,4.673 -1.849,8.666 -5.546,11.978c-3.698,3.312 -8.847,4.968 -15.447,4.968c-4.553,0 -8.497,-0.764 -11.834,-2.294c-3.336,-1.53 -5.691,-3.656 -7.064,-6.378c-1.373,-2.722 -2.011,-5.853 -1.915,-9.394Zm70.748,17.163l-10.912,0l9.25,-44.118l-15.537,0l1.843,-8.853l41.733,0l-1.843,8.853l-15.32,0l-9.214,44.118Zm219.76,0l-41.372,0l11.057,-52.971l39.276,0l-1.843,8.853l-28.364,0l-2.529,12.032l27.424,0l-1.842,8.853l-27.425,0l-3.324,14.38l30.821,0l-1.879,8.853Zm-149.12,-44.118l-28.364,0l-2.53,12.032l27.425,0l-1.843,8.853l-27.424,0l-3.325,14.38l30.822,0l-1.879,8.853l-41.372,0l11.056,-52.971l39.277,0l-1.843,8.853Zm168.234,44.118l-10.912,0l11.093,-52.971l23.522,0c4.047,0 7.197,0.416 9.449,1.247c2.252,0.831 4.071,2.355 5.456,4.571c1.385,2.216 2.078,4.902 2.078,8.057c0,4.505 -1.349,8.221 -4.047,11.147c-2.698,2.927 -6.781,4.74 -12.249,5.438c1.397,1.253 2.71,2.903 3.938,4.95c2.433,4.144 5.143,9.997 8.13,17.561l-11.707,0c-0.939,-2.987 -2.782,-7.648 -5.528,-13.983c-1.493,-3.421 -3.083,-5.721 -4.77,-6.902c-1.035,-0.698 -2.842,-1.048 -5.419,-1.048l-4.445,0l-4.589,21.933Zm-102.834,0l-10.912,0l11.093,-52.971l10.876,0l-4.264,20.451l20.488,0l4.299,-20.451l10.876,0l-11.056,52.971l-10.912,0l4.95,-23.667l-20.487,0l-4.951,23.667Zm124.044,-44.118l-11.996,0l-2.963,14.236l5.782,0c5.853,0 9.737,-0.349 11.652,-1.048c1.915,-0.698 3.415,-1.794 4.499,-3.288c1.084,-1.493 1.626,-3.059 1.626,-4.697c0,-1.927 -0.783,-3.372 -2.349,-4.336c-0.963,-0.578 -3.047,-0.867 -6.251,-0.867Z" style="fill:rgb(54,64,73);fill-rule:nonzero;"/>
    </g>
</svg>
